{"glyphs":{"0":{"ha":890,"x_min":0,"x_max":0,"o":"m 446 -19 b 825 486 644 -19 825 122 b 446 992 825 850 644 992 b 65 486 247 992 65 850 b 446 -19 65 122 247 -19 z m 226 486 b 446 849 226 768 333 849 b 664 486 560 849 664 768 b 446 124 664 204 560 124 b 226 486 333 124 226 204 z "},"1":{"ha":557,"x_min":0,"x_max":0,"o":"m 297 0 l 454 0 l 454 972 l 358 972 l 65 782 l 65 624 l 292 760 l 297 760 z "},"2":{"ha":792,"x_min":0,"x_max":0,"o":"m 82 0 l 732 0 l 732 133 l 290 133 l 456 276 b 715 676 571 375 715 507 b 388 992 715 874 583 992 b 32 676 185 992 44 889 l 194 676 b 386 861 207 800 279 861 b 554 678 488 861 554 789 b 382 394 554 568 458 468 l 82 100 z "},"3":{"ha":836,"x_min":0,"x_max":0,"o":"m 415 -19 b 749 263 624 -19 749 94 b 549 492 749 375 669 479 b 749 728 658 506 749 589 b 411 992 749 894 611 992 b 64 694 217 992 74 892 l 228 694 b 410 861 236 800 315 861 b 585 707 507 861 585 803 b 425 554 585 614 526 554 l 336 554 l 336 424 l 410 424 b 590 267 519 424 590 360 b 417 111 590 178 521 111 b 239 269 326 111 251 163 l 76 269 b 415 -19 89 71 221 -19 z "},"4":{"ha":874,"x_min":0,"x_max":0,"o":"m 513 0 l 669 0 l 669 233 l 826 233 l 826 368 l 669 368 l 669 972 l 456 972 l 47 361 l 47 233 l 513 233 z m 217 368 l 513 813 l 513 368 z "},"5":{"ha":831,"x_min":0,"x_max":0,"o":"m 406 -19 b 761 319 615 -19 761 108 b 458 622 761 503 632 625 b 244 513 356 621 279 574 l 265 836 l 710 836 l 710 972 l 138 972 l 100 408 l 236 408 b 414 496 276 463 335 496 b 600 308 519 496 600 422 b 410 111 600 183 522 111 b 229 271 319 111 242 165 l 65 271 b 406 -19 79 72 226 -19 z "},"6":{"ha":821,"x_min":0,"x_max":0,"o":"m 414 -19 b 763 318 615 -18 763 114 b 463 625 763 504 625 625 b 289 556 379 625 326 593 l 557 972 l 369 972 l 203 704 b 56 329 126 585 56 474 b 414 -19 56 119 189 -21 z m 222 317 b 414 508 222 414 292 508 b 599 317 532 508 599 418 b 411 119 599 208 529 119 b 222 317 289 119 222 208 z "},"7":{"ha":714,"x_min":0,"x_max":0,"o":"m 108 0 l 281 0 l 694 867 l 694 972 l 33 972 l 33 836 l 519 836 z "},"8":{"ha":833,"x_min":0,"x_max":0,"o":"m 417 -21 b 758 258 626 -21 758 96 b 600 486 758 379 676 458 b 758 714 676 513 758 592 b 417 992 758 875 626 992 b 75 714 208 992 75 875 b 233 486 75 592 158 513 b 75 258 158 458 75 379 b 417 -21 75 96 208 -21 z m 231 275 b 417 432 231 375 306 432 b 603 275 528 432 603 375 b 417 108 603 178 525 108 b 231 275 308 108 231 178 z m 231 697 b 417 863 231 793 308 863 b 603 697 525 863 603 793 b 417 539 603 597 528 539 b 231 697 306 539 231 597 z "},"9":{"ha":821,"x_min":0,"x_max":0,"o":"m 264 0 l 451 0 l 619 268 b 765 643 694 388 765 499 b 407 992 765 853 632 993 b 60 654 207 990 60 858 b 360 347 60 468 197 347 b 531 414 440 347 493 378 z m 222 656 b 410 853 222 764 292 853 b 599 656 532 853 599 764 b 408 464 599 558 531 464 b 222 656 290 464 222 554 z "}," ":{"ha":288,"x_min":0,"x_max":0,"o":""},"A":{"ha":1021,"x_min":0,"x_max":0,"o":"m 22 0 l 206 0 l 300 254 l 721 254 l 817 0 l 1000 0 l 611 972 l 411 972 z m 350 386 l 510 814 l 671 386 z "},"B":{"ha":924,"x_min":0,"x_max":0,"o":"m 518 972 l 121 972 l 121 0 l 499 0 b 824 258 706 0 824 103 b 597 485 824 413 694 475 b 840 708 696 490 840 560 b 518 972 840 871 725 972 z m 294 135 l 294 415 l 479 415 b 649 274 571 415 649 363 b 475 135 649 181 574 135 z m 294 544 l 294 838 l 496 838 b 660 692 583 838 660 786 b 496 544 660 596 581 544 z "},"C":{"ha":1164,"x_min":0,"x_max":0,"o":"m 596 -19 b 1081 363 844 -19 1051 126 l 900 363 b 596 132 869 221 750 132 b 265 486 396 132 265 286 b 596 840 265 686 396 840 b 900 610 750 840 871 751 l 1081 610 b 596 992 1051 846 844 992 b 83 486 303 992 83 779 b 596 -19 83 193 303 -19 z "},"D":{"ha":1093,"x_min":0,"x_max":0,"o":"m 121 0 l 488 0 b 1004 486 721 0 1004 126 b 488 972 1004 781 796 972 l 121 972 z m 294 136 l 294 838 l 460 838 b 828 486 633 838 828 746 b 460 136 828 224 633 136 z "},"E":{"ha":864,"x_min":0,"x_max":0,"o":"m 121 0 l 790 0 l 790 139 l 294 139 l 294 428 l 731 428 l 731 563 l 294 563 l 294 833 l 771 833 l 771 972 l 121 972 z "},"F":{"ha":828,"x_min":0,"x_max":0,"o":"m 121 0 l 294 0 l 294 410 l 719 410 l 719 547 l 294 547 l 294 833 l 758 833 l 758 972 l 121 972 z "},"G":{"ha":1175,"x_min":0,"x_max":0,"o":"m 593 -19 b 1092 481 910 -19 1100 172 l 601 481 l 601 347 l 908 347 b 603 122 892 201 772 122 b 261 486 400 122 261 281 b 603 842 261 686 401 842 b 906 626 760 842 871 758 l 1081 626 b 603 992 1049 853 850 992 b 83 486 308 992 83 779 b 593 -19 83 193 297 -19 z "},"H":{"ha":1097,"x_min":0,"x_max":0,"o":"m 121 0 l 294 0 l 294 418 l 804 418 l 804 0 l 976 0 l 976 972 l 804 972 l 804 554 l 294 554 l 294 972 l 121 972 z "},"I":{"ha":415,"x_min":0,"x_max":0,"o":"m 121 0 l 294 0 l 294 972 l 121 972 z "},"J":{"ha":842,"x_min":0,"x_max":0,"o":"m 378 -21 b 722 306 558 -21 722 72 l 722 972 l 551 972 l 551 329 b 382 117 551 185 486 117 b 204 299 272 117 215 182 l 38 299 b 378 -21 46 96 175 -21 z "},"K":{"ha":963,"x_min":0,"x_max":0,"o":"m 121 0 l 294 0 l 294 456 l 685 0 l 921 0 l 465 507 l 883 972 l 663 972 l 294 544 l 294 972 l 121 972 z "},"L":{"ha":756,"x_min":0,"x_max":0,"o":"m 121 0 l 700 0 l 700 139 l 294 139 l 294 972 l 121 972 z "},"M":{"ha":1304,"x_min":0,"x_max":0,"o":"m 121 0 l 292 0 l 286 763 l 554 38 l 750 38 l 1019 763 l 1013 0 l 1183 0 l 1183 972 l 932 972 l 653 204 l 372 972 l 121 972 z "},"N":{"ha":1090,"x_min":0,"x_max":0,"o":"m 121 0 l 292 0 l 288 724 l 789 0 l 969 0 l 969 972 l 799 972 l 803 240 l 301 972 l 121 972 z "},"O":{"ha":1219,"x_min":0,"x_max":0,"o":"m 610 -19 b 1136 486 907 -19 1136 193 b 610 992 1136 779 907 992 b 83 486 313 992 83 779 b 610 -19 83 193 313 -19 z m 267 486 b 610 840 267 686 407 840 b 951 486 814 840 951 686 b 610 132 951 286 814 132 b 267 486 407 132 267 286 z "},"P":{"ha":935,"x_min":0,"x_max":0,"o":"m 121 0 l 293 0 l 293 333 l 494 333 b 865 654 719 333 865 454 b 494 972 865 851 719 972 l 121 972 z m 293 468 l 293 838 l 486 838 b 688 654 597 838 688 786 b 486 468 688 529 597 468 z "},"Q":{"ha":1219,"x_min":0,"x_max":0,"o":"m 610 -18 b 857 38 700 -18 785 1 l 994 -125 l 1179 -125 l 975 117 b 1136 489 1075 208 1136 339 b 610 996 1136 779 908 996 b 83 489 311 996 83 779 b 610 -18 83 199 311 -18 z m 264 489 b 610 846 264 690 404 846 b 954 489 815 846 954 690 b 868 243 954 392 922 307 l 707 433 l 524 433 l 754 161 b 610 132 711 142 663 132 b 264 489 404 132 264 286 z "},"R":{"ha":957,"x_min":0,"x_max":0,"o":"m 121 0 l 294 0 l 294 374 l 504 374 b 644 235 613 374 644 318 l 644 0 l 817 0 l 817 251 b 643 450 817 368 751 433 b 860 690 761 468 860 547 b 506 972 860 868 726 972 l 121 972 z m 294 490 l 294 840 l 490 840 b 681 669 588 840 681 792 b 485 490 681 549 582 490 z "},"S":{"ha":928,"x_min":0,"x_max":0,"o":"m 454 -19 b 819 258 656 -19 819 72 b 293 718 819 617 293 500 b 483 864 293 806 372 864 b 681 683 604 864 675 785 l 854 686 b 482 992 853 899 679 992 b 117 713 281 992 117 889 b 642 249 117 351 642 475 b 453 110 642 153 557 110 b 247 293 333 110 250 186 l 75 293 b 454 -19 75 75 240 -19 z "},"T":{"ha":874,"x_min":0,"x_max":0,"o":"m 351 0 l 524 0 l 524 831 l 814 831 l 814 972 l 60 972 l 60 831 l 351 831 z "},"U":{"ha":1076,"x_min":0,"x_max":0,"o":"m 539 -21 b 958 378 767 -21 958 104 l 958 972 l 785 972 l 785 396 b 539 121 785 240 706 121 b 290 396 371 121 290 240 l 290 972 l 118 972 l 118 378 b 539 -21 118 104 308 -21 z "},"V":{"ha":1033,"x_min":0,"x_max":0,"o":"m 419 0 l 613 0 l 999 972 l 803 972 l 517 199 l 229 972 l 35 972 z "},"W":{"ha":1367,"x_min":0,"x_max":0,"o":"m 292 0 l 483 0 l 683 742 l 882 0 l 1075 0 l 1332 972 l 1140 972 l 975 217 l 776 972 l 588 972 l 390 219 l 225 972 l 35 972 z "},"X":{"ha":1036,"x_min":0,"x_max":0,"o":"m 31 0 l 243 0 l 517 353 l 790 0 l 1006 0 l 618 486 l 1006 972 l 790 972 l 517 619 l 243 972 l 31 972 l 417 486 z "},"Y":{"ha":997,"x_min":0,"x_max":0,"o":"m 415 0 l 583 0 l 582 376 l 967 972 l 775 972 l 499 531 l 222 972 l 31 972 l 414 376 z "},"Z":{"ha":922,"x_min":0,"x_max":0,"o":"m 69 0 l 863 0 l 863 143 l 267 143 l 828 819 l 828 972 l 85 972 l 85 831 l 628 831 l 69 153 z "},"a":{"ha":946,"x_min":0,"x_max":0,"o":"m 396 -19 b 656 164 526 -19 632 61 b 815 0 657 64 711 0 l 907 0 l 907 133 l 872 133 b 818 193 832 133 818 154 l 818 694 l 651 694 l 654 526 b 396 714 632 632 528 714 b 75 347 196 714 75 553 b 396 -19 75 142 196 -19 z m 246 347 b 450 579 246 490 333 579 b 656 347 565 579 656 485 b 450 115 656 210 565 115 b 246 347 333 115 246 204 z "},"b":{"ha":929,"x_min":0,"x_max":0,"o":"m 532 -19 b 856 346 732 -19 856 140 b 532 714 856 551 732 714 b 276 526 390 714 297 610 l 276 972 l 111 972 l 111 0 l 276 0 l 272 168 b 532 -19 293 74 390 -19 z m 272 344 b 478 578 272 485 364 578 b 683 346 594 578 683 490 b 478 115 683 203 594 115 b 272 344 364 115 272 207 z "},"c":{"ha":869,"x_min":0,"x_max":0,"o":"m 443 -19 b 794 271 631 -19 778 81 l 624 271 b 443 113 607 174 539 113 b 244 347 333 113 244 203 b 443 583 244 492 333 583 b 624 425 539 583 607 521 l 794 425 b 443 714 778 614 631 714 b 75 347 228 714 75 565 b 443 -19 75 129 228 -19 z "},"d":{"ha":924,"x_min":0,"x_max":0,"o":"m 390 -19 b 650 168 533 -19 629 74 l 647 0 l 813 0 l 813 972 l 647 972 l 647 526 b 390 714 625 610 532 714 b 67 346 192 714 67 551 b 390 -19 67 140 192 -19 z m 239 346 b 446 578 239 490 328 578 b 650 344 560 578 650 485 b 446 115 650 207 560 115 b 239 346 328 115 239 203 z "},"e":{"ha":858,"x_min":0,"x_max":0,"o":"m 438 -19 b 776 214 631 -19 751 65 l 619 214 b 438 103 599 146 543 103 b 235 308 315 103 239 196 l 778 308 b 783 365 781 324 783 342 b 439 714 788 585 643 714 b 75 346 226 714 75 571 b 438 -19 75 124 217 -19 z m 236 406 b 436 596 243 525 324 596 b 624 406 544 596 626 528 z "},"f":{"ha":629,"x_min":0,"x_max":0,"o":"m 213 1 l 379 1 l 379 564 l 589 564 l 589 694 l 379 694 l 379 765 b 464 851 379 822 406 851 l 589 851 l 589 972 l 411 972 b 213 782 282 972 213 906 l 213 694 l 40 694 l 40 564 l 213 564 z "},"g":{"ha":924,"x_min":0,"x_max":0,"o":"m 440 -282 b 819 56 650 -282 819 -174 l 819 694 l 654 694 l 657 540 b 397 714 636 629 540 714 b 75 372 199 714 75 567 b 397 31 75 178 199 31 b 656 192 533 31 629 111 l 656 64 b 446 -156 656 -90 554 -156 b 257 -10 346 -156 272 -100 l 86 -10 b 440 -282 92 -175 226 -282 z m 246 372 b 451 589 246 508 336 589 b 657 372 567 589 657 504 b 451 154 657 242 567 154 b 246 372 336 154 246 236 z "},"h":{"ha":869,"x_min":0,"x_max":0,"o":"m 111 0 l 276 0 l 276 392 b 444 583 276 503 340 583 b 600 399 543 583 600 519 l 600 0 l 765 0 l 765 421 b 517 714 765 611 689 714 b 272 531 389 714 296 624 l 276 972 l 111 972 z "},"i":{"ha":396,"x_min":0,"x_max":0,"o":"m 115 0 l 281 0 l 281 694 l 115 694 z m 115 797 l 281 797 l 281 972 l 115 972 z "},"j":{"ha":392,"x_min":0,"x_max":0,"o":"m -3 -264 l 111 -264 b 281 -101 222 -264 281 -206 l 281 703 l 115 703 l 115 -65 b 56 -125 115 -104 96 -125 l -3 -125 z m 115 797 l 281 797 l 281 972 l 115 972 z "},"k":{"ha":808,"x_min":0,"x_max":0,"o":"m 111 0 l 276 0 l 276 336 l 563 0 l 778 0 l 431 389 l 764 693 l 556 693 l 276 442 l 276 972 l 111 972 z "},"l":{"ha":422,"x_min":0,"x_max":0,"o":"m 279 0 l 385 0 l 385 133 l 336 133 b 276 193 294 133 276 154 l 276 972 l 111 972 l 111 163 b 279 0 111 58 169 0 z "},"m":{"ha":1275,"x_min":0,"x_max":0,"o":"m 111 0 l 276 0 l 276 399 b 431 583 276 508 342 583 b 557 396 515 583 557 511 l 557 0 l 724 0 l 724 399 b 878 583 724 510 789 583 b 1006 396 964 583 1006 511 l 1006 0 l 1171 0 l 1171 421 b 932 714 1171 600 1092 714 b 713 558 829 714 747 640 b 493 714 678 654 604 714 b 272 557 390 714 303 632 l 276 694 l 111 694 z "},"n":{"ha":869,"x_min":0,"x_max":0,"o":"m 111 0 l 276 0 l 276 392 b 444 583 276 503 340 583 b 600 399 543 583 600 519 l 600 0 l 765 0 l 765 421 b 517 714 765 611 689 714 b 272 532 389 714 296 625 l 276 694 l 111 694 z "},"o":{"ha":896,"x_min":0,"x_max":0,"o":"m 447 -19 b 821 347 669 -19 821 133 b 447 714 821 561 669 714 b 75 347 225 714 75 561 b 447 -19 75 133 225 -19 z m 243 347 b 447 581 243 496 338 581 b 653 347 557 581 653 496 b 447 115 653 197 557 115 b 243 347 338 115 243 197 z "},"p":{"ha":929,"x_min":0,"x_max":0,"o":"m 111 -264 l 276 -264 l 276 168 b 532 -19 297 85 390 -19 b 856 349 732 -19 856 143 b 532 714 856 554 732 714 b 272 526 390 714 293 621 l 276 694 l 111 694 z m 272 350 b 478 579 272 488 364 579 b 683 349 594 579 683 492 b 478 117 683 204 594 117 b 272 350 364 117 272 210 z "},"q":{"ha":931,"x_min":0,"x_max":0,"o":"m 654 168 l 654 -264 l 819 -264 l 819 694 l 654 694 l 657 526 b 397 714 636 621 540 714 b 75 349 199 714 75 554 b 397 -19 75 143 199 -19 b 654 168 540 -19 633 85 z m 246 349 b 453 579 246 492 335 579 b 658 350 567 579 658 488 b 453 117 658 210 567 117 b 246 349 335 117 246 204 z "},"r":{"ha":601,"x_min":0,"x_max":0,"o":"m 111 0 l 276 0 l 276 322 b 474 556 276 506 369 556 b 554 551 510 556 529 554 l 554 697 b 482 703 542 700 521 703 b 269 515 382 703 296 626 l 264 515 l 276 694 l 111 694 z "},"s":{"ha":775,"x_min":0,"x_max":0,"o":"m 374 -19 b 683 193 560 -19 683 56 b 260 508 683 465 260 360 b 396 601 260 565 314 601 b 532 485 472 601 528 560 l 701 485 b 392 714 701 642 563 714 b 93 501 225 714 93 642 b 515 188 93 228 515 338 b 385 94 515 132 467 94 b 242 206 303 94 247 133 l 69 204 b 374 -19 72 40 226 -19 z "},"t":{"ha":632,"x_min":0,"x_max":0,"o":"m 401 0 l 589 0 l 589 133 l 457 133 b 369 219 397 133 369 163 l 369 564 l 589 564 l 589 694 l 369 694 l 369 903 l 203 903 l 203 694 l 40 694 l 40 564 l 203 564 l 203 190 b 401 0 203 67 272 0 z "},"u":{"ha":839,"x_min":0,"x_max":0,"o":"m 333 -19 b 575 164 461 -19 551 71 l 572 0 l 738 0 l 738 694 l 572 694 l 572 303 b 406 111 572 192 507 111 b 258 296 311 111 258 175 l 258 694 l 93 694 l 93 274 b 333 -19 93 83 167 -19 z "},"v":{"ha":807,"x_min":0,"x_max":0,"o":"m 329 0 l 478 0 l 775 694 l 594 694 l 404 185 l 213 694 l 33 694 z "},"w":{"ha":1121,"x_min":0,"x_max":0,"o":"m 231 0 l 401 0 l 560 510 l 718 0 l 890 0 l 1088 694 l 910 694 l 793 174 l 644 694 l 476 694 l 326 172 l 210 694 l 33 694 z "},"x":{"ha":806,"x_min":0,"x_max":0,"o":"m 31 0 l 228 0 l 403 232 l 578 0 l 775 0 l 493 346 l 774 694 l 575 694 l 403 464 l 232 694 l 33 694 l 313 346 z "},"y":{"ha":817,"x_min":0,"x_max":0,"o":"m 188 -264 l 361 -264 l 785 694 l 607 694 l 413 233 l 213 694 l 33 694 l 329 47 z "},"z":{"ha":746,"x_min":0,"x_max":0,"o":"m 67 0 l 682 0 l 682 146 l 247 146 l 653 547 l 653 694 l 69 694 l 69 549 l 472 549 l 67 146 z "},".":{"ha":336,"x_min":0,"x_max":0,"o":"m 89 0 l 249 0 l 249 197 l 89 197 z "},",":{"ha":300,"x_min":0,"x_max":0,"o":"m 75 -157 l 226 -157 l 226 165 l 75 165 z "},"’":{"ha":346,"x_min":0,"x_max":0,"o":"m 97 650 l 249 650 l 249 972 l 97 972 z "},"'":{"ha":346,"x_min":0,"x_max":0,"o":"m 97 650 l 249 650 l 249 972 l 97 972 z "}}}
